<svg id="Gradient_画像" data-name="Gradient 画像" xmlns="http://www.w3.org/2000/svg" viewBox="0 0 245.76 245.76"><title>IG_Glyph_Fill</title><path d="M303.12,145.2v70.08c-.14,3.55-.3,7.1-.43,10.65A129.88,129.88,0,0,1,300.28,249c-3.4,15.81-11,29-23.91,39-10.67,8.24-23,12.29-36.22,13.62-7.86.79-15.79.87-23.69,1.28-.71,0-1.43.13-2.14.19H150c-.79-.07-1.58-.2-2.38-.21-9.67-.15-19.34-.29-29-1.51a73,73,0,0,1-26.42-8.19c-16.15-8.95-26.31-22.58-31.09-40.34-2.37-8.79-3-17.78-3.36-26.82-.12-3.59-.28-7.18-.43-10.77V145.2c.14-3.31.31-6.62.41-9.93a143.11,143.11,0,0,1,1.71-20c1.78-10.23,5.08-19.9,11.06-28.49,10.89-15.62,26.17-24.1,44.69-27.25,9-1.52,18-1.67,27.11-1.94.95,0,1.91-.13,2.86-.19h70.08c.95.06,1.91.16,2.86.18,8.55.26,17.1.4,25.58,1.7a71.8,71.8,0,0,1,26,8.76c15.36,9.06,25.06,22.44,29.65,39.62,2.36,8.79,3,17.78,3.35,26.81C302.81,138,303,141.61,303.12,145.2Zm-123-65.7v-.33c-16.75.34-33.5.64-50.25,1a72.09,72.09,0,0,0-16.82,2.39c-11.13,3-19.93,9.14-25.81,19.12-4.36,7.38-6.18,15.59-6.74,24-.53,7.93-.94,15.89-.94,23.84,0,26.75-.63,53.51.6,80.25a88,88,0,0,0,2,15.68c2.61,11.41,8.43,20.68,18.4,27a46,46,0,0,0,21,6.95c9.11.78,18.27,1.39,27.41,1.42,27.11.07,54.22.63,81.32-.66a77.43,77.43,0,0,0,18.1-2.7c13.19-3.85,22.59-12,27.72-24.81A58.11,58.11,0,0,0,280,234.67c.47-7.89.92-15.81.93-23.72,0-27.27.64-54.55-.66-81.81a73.36,73.36,0,0,0-2.62-16.9C274.08,99.91,266.74,90.75,255,85.33a55.58,55.58,0,0,0-20.31-4.82c-8.81-.51-17.65-.82-26.48-1C198.85,79.37,189.49,79.5,180.14,79.5Z" transform="translate(-57.36 -57.36)"/><path d="M243.4,180.18a63.16,63.16,0,1,1-63.18-63.1A63.18,63.18,0,0,1,243.4,180.18Zm-22.18-.05a41,41,0,1,0-40.9,41.1A41,41,0,0,0,221.22,180.13Z" transform="translate(-57.36 -57.36)"/><path d="M260.48,114.77a14.8,14.8,0,0,1-14.77,14.83,15,15,0,0,1-14.83-14.85A14.81,14.81,0,0,1,245.73,100,14.64,14.64,0,0,1,260.48,114.77Z" transform="translate(-57.36 -57.36)"/></svg>